<svg width="450" height="97" viewBox="0 0 450 97" fill="none" xmlns="http://www.w3.org/2000/svg">
<path d="M6.54944 96.3258C6.46555 96.3258 6.17191 96.242 5.66854 96.0742C5.41686 95.9903 5.12322 95.6966 4.78764 95.1933C4.70375 94.9416 4.61985 94.6899 4.53596 94.4382C4.45206 94.1865 4.41012 93.9348 4.41012 93.6831C4.15843 92.4247 4.03259 91.1663 4.03259 89.9079V81.2247C4.03259 80.4697 3.94869 79.7146 3.7809 78.9595C3.61311 78.2045 3.44532 77.4494 3.27753 76.6944C3.27753 76.5266 3.19364 76.2749 3.02585 75.9393C2.94195 75.6876 2.81611 75.436 2.64832 75.1843C2.48053 74.8487 2.31274 74.5551 2.14495 74.3034C1.80937 73.7161 1.55768 73.0869 1.38989 72.4157C1.2221 71.7446 1.09626 71.1154 1.01236 70.5281C0.928466 69.6052 0.928466 68.7243 1.01236 67.8854C1.18015 67.382 1.30599 66.9206 1.38989 66.5011C1.47378 65.9977 1.59963 65.5363 1.76742 65.1168C2.0191 64.4457 2.22884 63.7745 2.39663 63.1034C2.56442 62.3483 2.77416 61.5933 3.02585 60.8382L4.91349 54.6719C5.50075 52.9101 6.25581 51.1064 7.17866 49.2607C8.1015 47.4989 8.9824 45.5273 9.82135 43.3461C9.98914 42.8427 10.1989 42.2974 10.4506 41.7101C10.7861 40.7873 11.1217 39.9064 11.4573 39.0674C11.8768 38.1446 12.2543 37.2637 12.5899 36.4247L14.4775 31.1393C14.6453 30.8037 14.7712 30.4681 14.8551 30.1326C14.939 29.797 15.0229 29.4614 15.1067 29.1258C15.7779 27.4479 16.4491 25.8539 17.1202 24.3438C17.6236 23.3371 17.9592 22.2464 18.127 21.0719C18.2948 19.8974 18.2948 18.7228 18.127 17.5483C18.0431 17.0449 17.9592 16.5415 17.8753 16.0382C17.8753 15.4509 17.8753 14.9056 17.8753 14.4022C17.8753 14.1505 17.7914 13.9408 17.6236 13.773C17.5397 13.5213 17.5397 13.2696 17.6236 13.018C17.7075 12.8502 17.7914 12.6824 17.8753 12.5146C18.0431 12.3468 18.1689 12.179 18.2528 12.0112C18.5045 11.0884 18.882 10.2914 19.3854 9.6202C19.9727 8.86514 20.6019 8.19398 21.273 7.60672C21.6086 7.27114 22.07 7.01945 22.6573 6.85165C22.9929 6.68387 23.2865 6.51608 23.5382 6.34829C23.8738 6.1805 24.1674 5.97076 24.4191 5.71907C24.8386 5.38349 25.3 5.17376 25.8034 5.08986C26.4745 5.00596 27.1877 4.75428 27.9427 4.3348C28.6139 3.91533 29.3689 3.78948 30.2079 3.95727H31.3405C31.9277 3.95727 32.5569 4.16701 33.2281 4.58648C33.3959 4.67038 33.5637 4.79623 33.7315 4.96402C33.9832 5.04791 34.2348 5.17375 34.4865 5.34155C35.1577 5.84492 35.4933 6.47413 35.4933 7.22919C35.4933 7.81645 35.5352 8.36177 35.6191 8.86514C35.7869 9.36851 35.9127 9.91383 35.9966 10.5011C36.1644 11.0045 36.1644 11.5498 35.9966 12.137C35.9127 12.3048 35.8708 12.5146 35.8708 12.7663C35.8708 12.9341 35.8289 13.1018 35.745 13.2696C35.745 13.6052 35.703 13.9408 35.6191 14.2764C35.6191 14.612 35.5772 14.9475 35.4933 15.2831C35.2416 15.8704 35.3255 16.4577 35.745 17.0449C36.4161 18.1356 37.0034 19.2681 37.5068 20.4427C38.094 21.6172 38.6813 22.7917 39.2686 23.9663L41.5337 27.9932C42.2049 29.0839 42.876 30.3842 43.5472 31.8944C43.715 32.146 43.8408 32.3977 43.9247 32.6494C44.0925 32.9011 44.2603 33.1528 44.4281 33.4045C44.6798 33.824 44.8895 34.2854 45.0573 34.7887C45.309 35.2921 45.5607 35.7955 45.8124 36.2989C46.4835 37.5573 47.0289 38.8577 47.4483 40.2C47.9517 41.4584 48.4551 42.8007 48.9584 44.227C48.9584 44.3108 48.9584 44.3947 48.9584 44.4786C49.0423 44.4786 49.0843 44.5206 49.0843 44.6045C49.1682 45.1917 49.5877 45.4854 50.3427 45.4854C50.5944 45.4015 50.8461 45.3595 51.0978 45.3595C51.4334 45.3595 51.727 45.3595 51.9787 45.3595C52.9015 45.3595 53.6985 45.5273 54.3697 45.8629C54.7892 45.9468 55.2086 46.1985 55.6281 46.618C56.2993 47.2891 56.7607 47.8344 57.0124 48.2539C57.2641 48.6734 57.4319 49.3026 57.5158 50.1416C57.8513 51.7356 57.5158 53.1198 56.509 54.2944L55.754 54.9236C55.5862 55.0914 55.3764 55.2592 55.1247 55.427C54.8731 55.5109 54.6633 55.6367 54.4955 55.8045C54.0761 56.1401 53.8244 56.3917 53.7405 56.5595C53.7405 56.7273 53.8663 57.1049 54.118 57.6921L56.0056 62.2225C56.7607 63.9004 57.5158 65.5783 58.2708 67.2562C59.1098 68.9341 59.9487 70.612 60.7877 72.2899C61.1232 72.8771 61.3749 73.4644 61.5427 74.0517C61.7944 74.6389 61.9622 75.2682 62.0461 75.9393C62.13 76.4427 62.13 76.9461 62.0461 77.4494C62.0461 77.9528 62.0041 78.4562 61.9203 78.9595C61.9203 79.0434 61.8364 79.3371 61.6686 79.8404C61.4169 80.176 61.1652 80.5116 60.9135 80.8472C60.7457 81.1828 60.536 81.5184 60.2843 81.8539C59.6131 82.7768 59.0678 83.8255 58.6483 85C58.4805 85.7551 57.9352 86.3423 57.0124 86.7618C56.509 87.0135 55.9637 87.0135 55.3764 86.7618C54.6214 86.5101 54.118 86.0067 53.8663 85.2517L53.6146 84.6225C53.3629 83.7835 52.9854 82.9865 52.482 82.2315C52.1465 81.6442 51.8109 81.0569 51.4753 80.4697C51.2236 79.7985 50.93 79.1693 50.5944 78.582C50.5105 78.4142 50.4686 78.2884 50.4686 78.2045C50.4686 78.0367 50.4266 77.9109 50.3427 77.827C50.2588 77.3236 50.091 76.8622 49.8393 76.4427C49.6716 75.9393 49.4618 75.4779 49.2101 75.0584C48.7068 73.8 48.1614 72.5835 47.5742 71.409C47.0708 70.1506 46.5255 68.8921 45.9382 67.6337L44.0506 63.6067C43.9667 63.355 43.8828 63.1034 43.7989 62.8517C43.715 62.5161 43.5892 62.1805 43.4214 61.8449L41.9113 58.4472C41.9113 58.2794 41.8274 58.0277 41.6596 57.6921C41.2401 57.021 40.6948 56.6434 40.0236 56.5595C39.4363 56.5595 38.891 56.5176 38.3877 56.4337C37.8843 56.3498 37.3809 56.3079 36.8775 56.3079C35.5352 56.3079 34.1929 56.4337 32.8506 56.6854C31.5083 56.9371 30.2498 57.3985 29.0753 58.0697C27.4813 58.9925 25.8453 59.5798 24.1674 59.8315C23.8318 59.8315 23.4963 59.8734 23.1607 59.9573C22.8251 60.0412 22.4895 60.167 22.1539 60.3348C21.6506 60.6704 21.3569 61.0479 21.273 61.4674C21.1053 61.9708 21.0214 62.3483 21.0214 62.6L20.6438 64.3618C20.5599 64.9491 20.2244 65.5363 19.6371 66.1236C19.2176 66.5431 18.6303 66.7528 17.8753 66.7528C16.7847 66.585 16.0715 66.0397 15.736 65.1168C15.6521 64.8652 15.5682 64.6135 15.4843 64.3618C15.4004 64.1101 15.3165 63.8165 15.2326 63.4809C14.897 63.9843 14.8551 64.4037 15.1067 64.7393C15.2745 65.0749 15.1906 65.3685 14.8551 65.6202C14.6873 65.788 14.6453 65.9139 14.7292 65.9977C14.897 66.3333 14.8551 66.627 14.6034 66.8786C14.3517 67.1303 14.2678 67.424 14.3517 67.7595C14.4356 67.9273 14.4356 68.1371 14.3517 68.3888C13.9322 68.976 13.6386 69.6891 13.4708 70.5281C13.5547 70.8637 13.345 71.1154 12.8416 71.2831C12.6738 71.2831 12.5899 71.367 12.5899 71.5348C12.4221 71.7865 12.2543 72.164 12.0865 72.6674C12.0026 73.0869 11.8768 73.5483 11.709 74.0517C11.6251 74.4712 11.4993 74.8906 11.3315 75.3101L10.5764 78.4562V78.9595C10.5764 79.7146 10.4925 80.4697 10.3247 81.2247C10.2408 81.8959 10.1989 82.609 10.1989 83.364L9.82135 87.5169C9.73746 88.1041 9.65356 88.6914 9.56967 89.2787C9.56967 89.9498 9.56967 90.621 9.56967 91.2921C9.48577 91.7955 9.40188 92.2569 9.31798 92.6764C9.31798 93.1798 9.23409 93.6831 9.0663 94.1865C8.89851 94.9416 8.60487 95.4869 8.1854 95.8225C7.84982 96.3258 7.3045 96.4936 6.54944 96.3258ZM22.909 45.3595H23.0348C23.8738 45.1917 24.6708 45.0659 25.4259 44.982C26.1809 44.8981 26.936 44.8142 27.691 44.7303C28.1944 44.6464 28.6978 44.6045 29.2011 44.6045C29.7045 44.5206 30.2079 44.4786 30.7112 44.4786H33.3539C33.5217 44.4786 33.6895 44.4786 33.8573 44.4786C34.0251 44.3947 34.1509 44.3528 34.2348 44.3528C34.4026 44.3528 34.4865 44.185 34.4865 43.8494C34.2348 43.5138 34.0251 43.1783 33.8573 42.8427C33.6895 42.5071 33.5217 42.1715 33.3539 41.8359C32.8506 40.6614 32.1794 39.6547 31.3405 38.8157C31.2566 38.6479 31.1727 38.5221 31.0888 38.4382C31.0049 38.2704 30.921 38.1026 30.8371 37.9348C30.7532 37.767 30.6274 37.5992 30.4596 37.4314C30.3757 37.1798 30.2498 36.97 30.082 36.8022C29.6626 36.4666 29.2431 36.5505 28.8236 37.0539L28.4461 38.0607C28.3622 38.7318 28.2363 39.4449 28.0686 40.2C27.9008 40.8711 27.733 41.5423 27.5652 42.2135C27.5652 42.3813 27.4813 42.6329 27.3135 42.9685C27.1457 43.4719 26.7262 43.8494 26.0551 44.1011C25.4678 44.3528 24.8386 44.2689 24.1674 43.8494L23.4124 43.3461C23.4124 43.3461 23.3285 43.3461 23.1607 43.3461C22.9929 43.6816 22.909 43.9333 22.909 44.1011C22.909 44.2689 22.909 44.4367 22.909 44.6045C22.9929 44.7723 22.9509 44.9401 22.7832 45.1079C22.6154 45.2756 22.6573 45.3595 22.909 45.3595ZM118.384 91.418C118.049 91.5019 117.797 91.418 117.629 91.1663C117.294 90.9146 116.958 90.6629 116.623 90.4112C116.371 90.1596 116.035 89.9079 115.616 89.6562C114.945 89.3206 114.399 88.7333 113.98 87.8944C113.225 86.7199 112.847 85.4614 112.847 84.1191C112.847 83.6996 112.805 83.2801 112.721 82.8607C112.721 82.4412 112.679 82.0217 112.596 81.6022C112.596 81.1828 112.554 80.8052 112.47 80.4697C112.47 80.0502 112.47 79.6727 112.47 79.3371C112.47 78.9176 112.47 78.4981 112.47 78.0786C112.47 77.5753 112.428 77.1139 112.344 76.6944C112.344 76.6105 112.302 76.5685 112.218 76.5685C112.218 76.4846 112.218 76.4427 112.218 76.4427C112.05 76.4427 111.924 76.4846 111.84 76.5685L110.33 78.4562C109.995 78.9595 109.575 79.421 109.072 79.8404C108.652 80.176 108.233 80.5536 107.814 80.973C106.471 81.9798 105.129 82.8187 103.787 83.4899C103.199 83.7416 102.654 83.9513 102.151 84.1191C99.2982 85.1258 96.4877 85.5873 93.7191 85.5034C92.7963 85.4195 91.8315 85.3356 90.8247 85.2517C89.9019 85.2517 88.9371 85.1258 87.9304 84.8742C87.1753 84.6225 86.4203 84.3708 85.6652 84.1191C84.994 83.7835 84.3229 83.364 83.6517 82.8607C83.0644 82.3573 82.4772 81.8539 81.8899 81.3506C81.3026 80.7633 80.7573 80.1341 80.254 79.4629C79.415 78.1206 78.8697 77.2816 78.618 76.9461C78.3663 76.6105 77.9888 75.7715 77.4854 74.4292L76.8562 73.2966C76.6045 72.6255 76.3109 71.9963 75.9753 71.409C75.7236 70.7378 75.5139 70.0667 75.3461 69.3955L74.7169 67.6337C74.5491 67.0464 74.3813 66.5011 74.2135 65.9977C74.0457 65.4105 73.8779 64.8232 73.7101 64.2359C73.3746 63.1453 73.0809 62.0547 72.8292 60.964C72.5776 59.7895 72.3259 58.6569 72.0742 57.5663L71.6967 55.3011C71.6967 55.1333 71.6547 54.9655 71.5708 54.7977C71.5708 54.5461 71.5708 54.2944 71.5708 54.0427L70.8158 50.3932C70.7319 49.9738 70.6899 49.5962 70.6899 49.2607C70.6899 48.8412 70.6899 48.4637 70.6899 48.1281C70.606 47.4569 70.5641 46.7858 70.5641 46.1146C70.648 45.4434 70.6899 44.7723 70.6899 44.1011C70.7738 43.1783 70.8996 42.2974 71.0674 41.4584C71.2352 40.5356 71.403 39.6547 71.5708 38.8157C71.9064 37.6412 72.242 36.4667 72.5776 35.2921C72.997 34.0337 73.4584 32.8592 73.9618 31.7685C74.3813 30.8457 74.8008 29.9648 75.2202 29.1258C75.6397 28.203 76.1431 27.3221 76.7304 26.4831C77.4854 25.2247 78.2824 24.0082 79.1214 22.8337C80.0442 21.6592 80.9671 20.5266 81.8899 19.4359C82.5611 18.6809 83.2322 17.9678 83.9034 17.2966C84.5746 16.5415 85.2457 15.7865 85.9169 15.0314C87.0914 13.8569 88.3498 12.8502 89.6922 12.0112C90.3633 11.5917 91.0345 11.34 91.7056 11.2562C91.9573 11.1723 92.1671 11.1303 92.3349 11.1303C92.5865 11.1303 92.7963 11.0884 92.9641 11.0045C93.8869 10.8367 94.7259 10.8786 95.4809 11.1303C95.7326 11.2142 95.9843 11.2981 96.236 11.382C96.5716 11.4659 96.8652 11.5498 97.1169 11.6337C98.2075 12.0532 99.1723 12.3048 100.011 12.3887C100.515 12.3887 101.102 12.5565 101.773 12.8921C102.193 12.976 102.612 13.1018 103.031 13.2696C103.451 13.3535 103.87 13.4374 104.29 13.5213C104.793 13.5213 105.213 13.6472 105.548 13.8989C105.632 13.8989 105.716 13.9408 105.8 14.0247C105.968 14.0247 106.094 14.0247 106.178 14.0247C106.849 14.1086 107.436 14.2764 107.939 14.5281C108.443 14.6959 108.946 14.9475 109.449 15.2831C110.624 16.0382 111.84 16.8771 113.099 17.8C113.854 18.3872 114.231 19.1842 114.231 20.191V20.8202C114.483 21.8269 114.231 22.8337 113.476 23.8404C113.057 24.5955 112.721 25.0989 112.47 25.3505C112.302 25.5183 111.799 25.812 110.96 26.2314C110.708 26.3153 110.414 26.4412 110.079 26.609C109.827 26.6929 109.491 26.7348 109.072 26.7348C108.904 26.7348 108.694 26.7768 108.443 26.8607C108.275 26.8607 108.107 26.8607 107.939 26.8607C107.688 26.9445 107.436 26.9445 107.184 26.8607C106.933 26.7768 106.681 26.7348 106.429 26.7348C106.345 26.8187 106.22 26.7768 106.052 26.609L104.164 25.0989C102.822 23.9243 101.27 23.2532 99.5079 23.0854C99.1723 23.0015 98.8367 22.9595 98.5012 22.9595C98.1656 22.9595 97.788 22.9176 97.3686 22.8337C96.2779 22.8337 95.397 23.1273 94.7259 23.7146L93.845 24.5955C93.0899 25.4344 92.2929 26.2734 91.454 27.1123C90.6989 27.9513 89.9438 28.7902 89.1888 29.6292C88.6015 30.2165 88.0982 30.8876 87.6787 31.6427C87.2592 32.3977 86.8397 33.1528 86.4203 33.9078C85.0779 36.5086 84.0712 39.2771 83.4 42.2135C83.3161 42.7168 83.2322 43.2202 83.1483 43.7236C83.0644 44.1431 82.9806 44.5625 82.8967 44.982C82.8967 45.4015 82.8967 45.821 82.8967 46.2404C82.8967 46.6599 82.9386 47.0794 83.0225 47.4989C83.1064 47.8344 83.1483 48.17 83.1483 48.5056C83.1483 48.7573 83.1903 49.0509 83.2742 49.3865L83.6517 52.4067C83.7356 52.9101 83.8195 53.4554 83.9034 54.0427C84.0712 54.5461 84.197 55.0494 84.2809 55.5528C85.1199 58.8247 86.1266 62.1386 87.3012 65.4944C87.7206 66.7528 88.224 67.8434 88.8113 68.7663L89.5663 69.8989C89.818 70.2345 90.0697 70.57 90.3214 70.9056C90.5731 71.1573 90.8247 71.409 91.0764 71.6607C91.5798 71.9962 91.9993 72.206 92.3349 72.2899C93.5933 72.5416 94.8937 72.6674 96.236 72.6674C97.9139 72.4996 99.3401 71.9543 100.515 71.0315C101.102 70.612 101.605 70.1506 102.025 69.6472C102.528 69.1438 102.99 68.5985 103.409 68.0112C104.416 66.8367 105.297 65.5783 106.052 64.2359C106.303 63.7326 106.261 63.2292 105.926 62.7258C105.423 61.8869 104.793 61.2157 104.038 60.7124C103.115 60.0412 102.151 59.4959 101.144 59.0764C100.221 58.573 99.1723 58.2794 97.9978 58.1955L97.3686 57.9438C96.6974 57.6921 95.9843 57.6921 95.2292 57.9438C94.642 58.1955 94.0128 58.3213 93.3416 58.3213C92.7543 58.2374 92.1251 58.1535 91.454 58.0697C89.9438 57.6502 88.6435 56.979 87.5528 56.0562C87.2173 55.6367 86.9236 55.2172 86.6719 54.7977C86.5041 54.3783 86.2944 54.0007 86.0427 53.6652C86.0427 53.4974 86.0008 53.3296 85.9169 53.1618C85.9169 52.994 85.9588 52.8682 86.0427 52.7843C86.0427 52.3648 86.0427 51.9453 86.0427 51.5258C86.1266 51.1064 86.2105 50.6869 86.2944 50.2674C86.2944 50.1835 86.3783 49.8899 86.5461 49.3865C86.7139 48.967 86.9236 48.5895 87.1753 48.2539C87.5109 47.8344 87.8465 47.4569 88.1821 47.1213C89.5244 45.8629 90.9925 45.0659 92.5865 44.7303C93.5094 44.4786 94.4322 44.3108 95.3551 44.227C96.2779 44.0592 97.1588 43.9333 97.9978 43.8494H108.569C109.24 43.8494 109.953 43.8494 110.708 43.8494C111.463 43.8494 112.218 43.8075 112.973 43.7236C113.644 43.6397 114.273 43.5977 114.861 43.5977C115.532 43.5977 116.203 43.5977 116.874 43.5977C117.629 43.5977 118.3 43.7236 118.888 43.9753C119.811 44.227 120.524 44.7723 121.027 45.6112C121.279 45.9468 121.53 46.3243 121.782 46.7438C122.034 47.1633 122.202 47.5828 122.285 48.0022C122.369 48.0861 122.411 48.212 122.411 48.3798C122.411 48.4637 122.453 48.5895 122.537 48.7573L123.418 53.4135C123.586 54.0846 123.712 54.7977 123.796 55.5528C123.879 56.3079 123.963 57.0629 124.047 57.818C124.047 58.2374 124.047 58.6989 124.047 59.2022C124.131 59.6217 124.173 60.0412 124.173 60.4607C124.173 60.7962 124.173 61.1738 124.173 61.5933C124.257 62.0127 124.299 62.4322 124.299 62.8517V68.6404C124.299 69.2277 124.299 69.8989 124.299 70.6539C124.383 71.3251 124.467 71.9962 124.551 72.6674C124.634 73.003 124.676 73.3386 124.676 73.6742C124.676 74.0097 124.676 74.3873 124.676 74.8067C124.593 75.6457 124.634 76.5266 124.802 77.4494C124.97 78.2884 125.096 79.1693 125.18 80.0921C125.264 80.5116 125.348 80.973 125.432 81.4764C125.599 81.8959 125.725 82.3573 125.809 82.8607C125.893 83.1963 125.935 83.5738 125.935 83.9933C126.019 84.3288 126.061 84.7064 126.061 85.1258C126.061 85.4614 126.019 85.797 125.935 86.1326C125.935 86.5521 125.809 86.9296 125.557 87.2652C125.39 87.433 125.222 87.6846 125.054 88.0202C124.718 88.9431 124.005 89.6981 122.915 90.2854C122.076 90.621 121.195 90.8727 120.272 91.0405C119.517 91.0405 118.888 91.1663 118.384 91.418ZM187.682 94.1865C186.927 94.1865 186.256 93.8929 185.669 93.3056C185.501 93.0539 185.333 92.8022 185.166 92.5506C184.998 92.2989 184.83 92.0472 184.662 91.7955C183.907 90.0337 183.53 88.188 183.53 86.2584L183.152 83.2382C182.9 82.0637 182.691 80.8891 182.523 79.7146C182.355 78.5401 182.061 77.4075 181.642 76.3169L180.887 74.1775C180.887 74.0097 180.845 73.8419 180.761 73.6742C180.761 73.5064 180.719 73.3386 180.635 73.1708L178.748 66.5011C178.664 66.3333 178.58 66.1236 178.496 65.8719C178.496 65.6202 178.412 65.4105 178.244 65.2427C177.992 64.7393 177.783 64.2359 177.615 63.7326C177.531 63.1453 177.405 62.558 177.237 61.9708C177.154 61.5513 177.07 61.1738 176.986 60.8382C176.902 60.4187 176.776 59.9992 176.608 59.5798C176.44 59.0764 176.273 58.7828 176.105 58.6989C175.937 58.5311 175.56 58.5311 174.972 58.6989C174.553 58.7828 174.091 58.8667 173.588 58.9506C173.169 58.9506 172.749 59.0344 172.33 59.2022C171.994 59.2861 171.574 59.37 171.071 59.4539C170.652 59.4539 170.232 59.4959 169.813 59.5798L168.051 59.9573C167.631 60.0412 167.17 60.167 166.667 60.3348C166.247 60.4187 165.828 60.4607 165.408 60.4607L163.143 60.8382C162.472 61.006 161.759 61.1738 161.004 61.3416C160.249 61.5094 159.536 61.6771 158.864 61.8449C156.851 62.3483 154.837 62.7258 152.824 62.9775C152.153 63.1453 151.775 63.4389 151.691 63.8584C151.607 63.8584 151.565 63.9004 151.565 63.9843C151.062 65.3266 150.475 66.6689 149.804 68.0112C149.216 69.2697 148.587 70.57 147.916 71.9124C147.748 72.2479 147.58 72.5835 147.413 72.9191C147.329 73.1708 147.203 73.4644 147.035 73.8C146.951 73.9678 146.867 74.1775 146.783 74.4292C146.7 74.597 146.616 74.7648 146.532 74.9326C146.028 75.5198 145.777 76.233 145.777 77.0719C145.693 77.5753 145.525 78.0786 145.273 78.582C145.022 79.0015 144.77 79.421 144.518 79.8404C144.434 80.0921 144.267 80.218 144.015 80.218C143.679 80.3019 143.344 80.4277 143.008 80.5955C142.673 80.7633 142.295 80.9311 141.876 81.0989C141.624 81.1828 141.372 81.1828 141.121 81.0989C140.953 81.015 140.743 80.9311 140.491 80.8472C140.324 80.6794 140.156 80.5955 139.988 80.5955C139.065 80.5116 138.394 79.9663 137.974 78.9595C137.303 77.6172 136.842 76.2749 136.59 74.9326C136.506 74.597 136.506 74.3034 136.59 74.0517C136.758 73.8 136.884 73.5483 136.968 73.2966C137.471 72.961 137.765 72.5835 137.849 72.164V72.0382C137.849 70.9476 138.058 69.9408 138.478 69.018C138.981 68.0112 139.401 67.0464 139.736 66.1236C139.904 65.6202 140.114 65.1168 140.365 64.6135C140.617 64.1101 140.869 63.6067 141.121 63.1034C141.456 62.5161 141.708 61.9708 141.876 61.4674C142.127 60.8801 142.337 60.2929 142.505 59.7056C142.757 59.0344 142.757 58.4052 142.505 57.818C142.337 57.3146 142.253 56.8532 142.253 56.4337C142.253 55.9303 142.295 55.427 142.379 54.9236C142.379 54.0007 142.715 53.2037 143.386 52.5326C143.721 52.1131 144.057 51.7775 144.392 51.5258C144.812 51.1903 145.189 50.8547 145.525 50.5191C146.28 49.764 146.867 48.7573 147.287 47.4989C147.622 46.4082 147.874 45.3176 148.042 44.227C148.294 43.0524 148.545 41.9198 148.797 40.8292C148.965 39.7386 149.133 38.6899 149.3 37.6831C149.552 36.5925 149.804 35.5438 150.055 34.5371C150.139 34.1176 150.223 33.7401 150.307 33.4045C150.475 32.985 150.601 32.6075 150.685 32.2719C150.936 31.6007 151.188 30.9715 151.44 30.3843C151.691 29.7131 151.859 29.0419 151.943 28.3708C152.111 28.0352 152.111 27.7416 151.943 27.4899C151.859 27.0704 151.859 26.6929 151.943 26.3573C152.111 26.0217 152.237 25.6861 152.321 25.3505C152.572 24.7633 152.74 24.176 152.824 23.5887C152.992 23.0015 153.201 22.4142 153.453 21.8269C153.873 20.7363 154.208 19.8554 154.46 19.1842C154.795 18.4292 155.089 17.5902 155.341 16.6674C155.509 16.164 155.676 15.7026 155.844 15.2831C156.096 14.7798 156.264 14.2764 156.348 13.773C156.599 13.0179 156.809 12.2629 156.977 11.5078C157.145 10.6689 157.228 9.87188 157.228 9.11682C157.396 8.44567 157.564 7.98424 157.732 7.73256C158.151 6.89361 158.655 6.1805 159.242 5.59323C159.913 5.00597 160.542 4.4187 161.13 3.83143C161.549 3.57975 161.968 3.41196 162.388 3.32806C162.807 3.16027 163.227 3.20222 163.646 3.45391C163.982 3.6217 164.192 3.70559 164.276 3.70559C165.031 3.6217 165.66 3.78949 166.163 4.20896C166.667 4.62844 167.086 5.13181 167.422 5.71907C167.589 5.88686 167.715 6.0966 167.799 6.34829C167.883 6.59997 167.967 6.80971 168.051 6.9775C168.47 7.64866 168.68 8.31982 168.68 8.99098C168.68 9.32657 168.722 9.70409 168.806 10.1236C168.89 10.4592 168.974 10.8367 169.058 11.2562C169.309 11.7595 169.687 12.0112 170.19 12.0112C170.274 11.9273 170.358 11.9273 170.442 12.0112C170.526 12.0951 170.568 12.179 170.568 12.2629C170.987 12.7663 171.113 13.3116 170.945 13.8989C170.777 14.57 170.736 15.2412 170.819 15.9123C170.987 16.4996 171.155 17.1288 171.323 17.8C171.658 18.6389 171.994 19.4779 172.33 20.3168C172.665 21.1558 173.001 21.9947 173.336 22.8337C173.756 23.7565 174.175 24.6794 174.595 25.6022C175.014 26.5251 175.392 27.4479 175.727 28.3708C176.147 29.5453 176.566 30.7198 176.986 31.8944C177.489 33.0689 178.034 34.2434 178.622 35.418L178.999 36.8022C179.083 37.1378 179.167 37.4734 179.251 37.809C179.419 38.1446 179.545 38.4801 179.628 38.8157C179.796 39.0674 179.922 39.3191 180.006 39.5708C180.174 39.8225 180.342 40.0322 180.509 40.2C180.929 40.7873 181.18 41.4165 181.264 42.0876C181.516 42.9266 181.894 43.6816 182.397 44.3528C182.565 44.6045 182.816 44.7303 183.152 44.7303C184.41 44.5625 185.669 44.4367 186.927 44.3528C188.186 44.185 189.444 43.9333 190.703 43.5977C191.625 43.3461 192.506 43.2202 193.345 43.2202C194.939 43.2202 196.407 43.7655 197.75 44.8562C199.344 46.1146 200.183 47.7086 200.267 49.6382C200.267 50.0577 200.309 50.3932 200.392 50.6449C200.392 51.2322 200.225 51.6936 199.889 52.0292C199.805 52.2809 199.637 52.5326 199.386 52.7843C199.218 53.0359 199.05 53.2876 198.882 53.5393C198.715 53.8749 198.547 54.1266 198.379 54.2944L197.624 54.9236C197.54 55.0914 197.414 55.3011 197.246 55.5528C197.079 55.7206 196.869 55.8464 196.617 55.9303C196.282 56.0142 195.946 56.1401 195.61 56.3079C195.275 56.3917 194.897 56.4337 194.478 56.4337C192.968 56.6015 191.625 56.5595 190.451 56.3079H188.437C188.27 56.3079 188.018 56.3917 187.682 56.5595C187.347 56.7273 187.179 56.9371 187.179 57.1888V57.6921C187.431 58.4472 187.598 59.2442 187.682 60.0831C187.85 60.8382 188.102 61.5513 188.437 62.2225C188.437 62.558 188.521 62.8936 188.689 63.2292C189.109 63.9843 189.444 64.7813 189.696 65.6202C189.948 66.3753 190.157 67.1723 190.325 68.0112C190.325 68.179 190.409 68.5146 190.577 69.018C190.828 69.6052 191.038 70.2345 191.206 70.9056C191.374 71.4929 191.5 72.1221 191.583 72.7933C191.583 73.2966 191.709 73.758 191.961 74.1775C192.297 74.9326 192.548 75.6876 192.716 76.4427C192.884 77.1977 193.01 77.9948 193.094 78.8337C193.177 78.9176 193.219 79.0854 193.219 79.3371C193.219 79.5049 193.261 79.6727 193.345 79.8404C193.765 80.7633 194.058 81.77 194.226 82.8607C194.394 83.8674 194.604 84.8742 194.855 85.8809C195.023 86.3843 195.107 86.8876 195.107 87.391C195.191 87.9783 195.233 88.5655 195.233 89.1528C195.233 89.5723 195.107 90.0337 194.855 90.5371C194.604 90.7888 194.478 90.9146 194.478 90.9146C193.975 90.9985 193.681 91.2921 193.597 91.7955L193.219 92.5506C193.052 92.8861 192.8 93.0959 192.464 93.1798C192.129 93.1798 191.835 93.3056 191.583 93.5573C191.248 93.8929 190.786 94.0607 190.199 94.0607C189.864 94.0607 189.444 94.0607 188.941 94.0607C188.521 94.0607 188.102 94.1026 187.682 94.1865ZM157.354 48.5056C157.858 48.4217 158.361 48.3378 158.864 48.2539C159.452 48.17 160.081 48.0861 160.752 48.0022C161.171 47.9183 161.717 47.8344 162.388 47.7505C163.059 47.6667 163.688 47.5828 164.276 47.4989C164.863 47.3311 165.45 47.2472 166.037 47.2472C166.625 47.1633 167.212 47.0794 167.799 46.9955C168.303 46.8277 168.806 46.7438 169.309 46.7438C169.813 46.6599 170.316 46.576 170.819 46.4921C171.574 46.3243 171.868 45.9049 171.7 45.2337C171.616 44.5625 171.449 43.8914 171.197 43.2202C171.029 42.4652 170.652 41.8359 170.064 41.3326C169.897 41.1648 169.813 40.9131 169.813 40.5775V40.2C169.645 39.5288 169.435 38.8996 169.183 38.3123C169.016 37.6412 168.806 37.012 168.554 36.4247C168.386 35.7535 168.177 35.1663 167.925 34.6629C167.757 34.0756 167.548 33.4884 167.296 32.9011L165.786 28.3708C165.534 27.7835 165.282 27.1962 165.031 26.609C164.863 26.0217 164.695 25.4344 164.527 24.8472L164.15 24.3438H163.772L163.521 24.7213C163.101 25.9798 162.598 27.2382 162.01 28.4966C161.507 29.755 161.046 31.0974 160.626 32.5236C160.626 32.6914 160.584 32.9011 160.5 33.1528C160.416 33.4045 160.333 33.6562 160.249 33.9078C159.913 34.7468 159.577 35.6696 159.242 36.6764C158.99 37.6831 158.78 38.6899 158.613 39.6966C158.529 40.2839 158.445 40.8711 158.361 41.4584C158.277 41.9618 158.151 42.5071 157.983 43.0944L156.851 48.0022C156.767 48.0861 156.809 48.212 156.977 48.3798C157.145 48.4637 157.27 48.5056 157.354 48.5056ZM231.346 84.8742C231.178 84.7903 230.926 84.7483 230.591 84.7483C230.423 84.7483 230.255 84.6225 230.087 84.3708C229.92 84.1191 229.752 83.9094 229.584 83.7416C229.416 83.4899 229.248 83.1963 229.081 82.8607C228.829 82.5251 228.619 82.5251 228.451 82.8607H228.2C228.2 82.7768 228.158 82.7348 228.074 82.7348C228.074 82.6509 228.074 82.609 228.074 82.609C227.822 81.4345 227.445 80.3438 226.941 79.3371C226.69 78.6659 226.438 77.9948 226.186 77.3236C226.019 76.5685 225.893 75.8135 225.809 75.0584L225.054 69.5213L224.676 64.991V64.7393C224.508 63.7326 224.425 62.7258 224.425 61.7191C224.425 60.6285 224.425 59.5378 224.425 58.4472C224.341 57.8599 224.299 57.3146 224.299 56.8112C224.299 56.224 224.257 55.6367 224.173 55.0494C224.089 54.3783 224.005 53.7071 223.921 53.0359C223.921 52.3648 223.921 51.7356 223.921 51.1483L224.047 41.2067V27.7416C223.879 27.2382 223.628 26.9865 223.292 26.9865C223.124 26.9865 222.914 27.0284 222.663 27.1123C222.495 27.1123 222.327 27.1123 222.159 27.1123L216.496 28.6225C215.741 28.8741 214.986 29.1258 214.231 29.3775C213.476 29.5453 212.721 29.755 211.966 30.0067C211.379 30.0906 210.792 30.1745 210.204 30.2584C209.701 30.2584 209.156 30.2584 208.568 30.2584C208.149 30.2584 207.687 30.0906 207.184 29.755C206.597 29.5034 206.093 29.1678 205.674 28.7483C205.254 28.3288 204.835 27.8674 204.416 27.364L204.164 26.9865C203.996 26.3992 203.828 25.8539 203.66 25.3505C203.577 24.7633 203.577 24.176 203.66 23.5887C203.744 22.8337 203.912 22.1206 204.164 21.4494C204.499 20.7783 204.961 20.191 205.548 19.6876C205.8 19.5198 206.01 19.3101 206.177 19.0584C206.429 18.8067 206.681 18.555 206.932 18.3033C207.268 18.1356 207.478 18.0517 207.562 18.0517C208.065 18.0517 208.526 17.9678 208.946 17.8C209.365 17.5483 209.785 17.3805 210.204 17.2966C210.624 17.2127 211.043 17.1288 211.463 17.0449C211.882 16.961 212.302 16.8771 212.721 16.7932C213.896 16.4577 215.07 16.164 216.245 15.9123C217.419 15.5768 218.594 15.3251 219.768 15.1573L226.564 14.0247C226.732 13.9408 226.857 13.8989 226.941 13.8989C227.109 13.8989 227.235 13.8569 227.319 13.773C227.822 13.6052 228.326 13.4794 228.829 13.3955C229.332 13.3116 229.836 13.3535 230.339 13.5213C230.507 13.6052 230.633 13.6472 230.717 13.6472C230.884 13.5633 231.01 13.5213 231.094 13.5213C232.52 13.3535 233.947 13.1857 235.373 13.018C236.799 12.8502 238.183 12.6404 239.526 12.3887C240.616 12.2209 241.707 12.0532 242.798 11.8854C243.888 11.7176 244.979 11.5917 246.069 11.5078C246.908 11.34 247.747 11.2142 248.586 11.1303C249.425 11.0464 250.264 10.9625 251.103 10.8786C251.774 10.7947 252.445 10.7108 253.117 10.6269C253.872 10.543 254.585 10.4592 255.256 10.3753C255.927 10.2914 256.556 10.2914 257.144 10.3753C257.815 10.3753 258.486 10.3753 259.157 10.3753C259.577 10.3753 259.954 10.5011 260.29 10.7528C260.709 11.0045 261.087 11.2142 261.422 11.382C261.758 11.6337 262.219 12.0532 262.807 12.6404C262.974 12.8082 263.142 13.1857 263.31 13.773C263.394 14.0247 263.478 14.3183 263.562 14.6539C263.646 14.9056 263.729 15.1992 263.813 15.5348C263.981 16.2899 263.897 17.003 263.562 17.6741L262.807 19.4359C262.723 19.6876 262.597 19.9393 262.429 20.191C262.345 20.3588 262.219 20.5266 262.051 20.6944C261.884 20.8622 261.8 20.946 261.8 20.946C261.464 21.1977 261.087 21.4494 260.667 21.7011C260.332 21.9528 259.912 22.1206 259.409 22.2045L253.998 22.582C253.494 22.582 252.991 22.6239 252.487 22.7078C251.984 22.7078 251.439 22.7498 250.851 22.8337H250.222C248.88 22.9176 247.58 23.0434 246.321 23.2112C245.063 23.379 243.804 23.5468 242.546 23.7146L237.512 24.4696C237.26 24.4696 237.093 24.5116 237.009 24.5955C236.673 24.5955 236.422 24.8472 236.254 25.3505V25.7281C236.254 26.567 236.254 27.406 236.254 28.2449C236.254 29 236.296 29.797 236.38 30.6359C236.631 31.8105 236.631 32.985 236.38 34.1595C236.296 34.4112 236.212 34.6629 236.128 34.9146C236.128 35.0824 236.128 35.2502 236.128 35.418C236.212 36.4247 236.128 37.5153 235.876 38.6899C235.876 38.9416 235.876 39.1932 235.876 39.4449C235.876 39.6966 235.918 39.9483 236.002 40.2C236.086 40.5356 236.128 40.9131 236.128 41.3326C236.128 41.752 236.128 42.1715 236.128 42.591V49.1348C236.128 49.4704 236.086 49.8899 236.002 50.3932C236.002 50.8127 236.002 51.2322 236.002 51.6517C236.002 51.9873 236.002 52.3648 236.002 52.7843C236.086 53.2037 236.128 53.6232 236.128 54.0427C236.128 54.63 236.128 55.2172 236.128 55.8045C236.212 56.3918 236.212 57.021 236.128 57.6921V61.5933C236.128 61.6771 236.086 61.761 236.002 61.8449C236.002 61.9288 236.044 62.0547 236.128 62.2225C236.212 62.9775 236.254 63.7745 236.254 64.6135C236.254 65.3685 236.338 66.1236 236.505 66.8786C236.505 67.1303 236.505 67.382 236.505 67.6337C236.589 67.8854 236.589 68.1371 236.505 68.3888C236.505 69.1438 236.589 69.9408 236.757 70.7798C236.925 71.5348 237.051 72.2899 237.135 73.0449C237.302 73.9678 237.47 74.8906 237.638 75.8135C237.89 76.7363 238.099 77.6592 238.267 78.582L238.645 80.3438C238.645 80.5955 238.519 80.8052 238.267 80.973C238.267 80.973 238.225 80.973 238.141 80.973C238.141 80.973 238.099 81.015 238.016 81.0989C237.596 81.2667 237.428 81.5184 237.512 81.8539V82.4831C237.512 82.4831 237.47 82.5251 237.386 82.609C237.386 82.6929 237.344 82.7348 237.26 82.7348C236.841 82.7348 236.505 82.9026 236.254 83.2382C236.002 83.5738 235.708 83.8674 235.373 84.1191C235.121 84.2869 234.786 84.4547 234.366 84.6225C233.275 85.0419 232.269 85.1258 231.346 84.8742Z" fill="white"/>
<path d="M279.44 95.0674C278.518 94.8996 277.888 94.4802 277.553 93.809C277.301 93.3056 277.091 92.7603 276.924 92.173C276.84 91.6697 276.756 91.1663 276.672 90.6629C276.588 89.9918 276.504 89.2787 276.42 88.5236C276.336 87.8524 276.252 87.1813 276.168 86.5101C276.085 85.6712 275.959 84.8742 275.791 84.1191C275.623 83.364 275.371 82.567 275.036 81.7281C274.952 81.4764 274.868 81.2667 274.784 81.0989C274.7 80.8472 274.574 80.5955 274.407 80.3438L272.897 77.1978C272.477 76.3588 272.267 75.5198 272.267 74.6809C272.183 73.5903 272.142 72.5416 272.142 71.5348C272.142 70.5281 272.183 69.5213 272.267 68.5146C272.267 68.179 272.351 67.7595 272.519 67.2562C272.687 66.4172 272.855 65.6202 273.022 64.8652C273.274 64.0262 273.442 63.2292 273.526 62.4741C273.694 61.4674 273.861 60.5026 274.029 59.5798C274.197 58.573 274.323 57.6082 274.407 56.6854C274.574 55.7625 274.7 54.8397 274.784 53.9168C274.868 52.994 274.952 52.0711 275.036 51.1483C275.12 50.4771 275.204 49.8479 275.288 49.2607C275.371 48.5895 275.455 47.9603 275.539 47.373C275.623 47.1213 275.665 46.7438 275.665 46.2404C275.665 45.821 275.707 45.4015 275.791 44.982C275.875 44.4786 275.959 44.0172 276.043 43.5977C276.21 42.9266 276.294 42.2554 276.294 41.5843C276.378 40.8292 276.462 40.1161 276.546 39.4449C276.63 39.1932 276.672 38.8577 276.672 38.4382C276.924 37.5153 277.091 36.5505 277.175 35.5438C277.343 34.5371 277.469 33.5303 277.553 32.5236L277.93 30.3843C278.098 29.4614 278.224 28.5386 278.308 27.6157C278.392 26.609 278.476 25.6442 278.56 24.7213C278.727 23.7985 278.811 22.8756 278.811 21.9528C278.811 20.946 278.811 19.9813 278.811 19.0584C278.811 18.555 278.811 18.0936 278.811 17.6741C278.895 17.1708 278.979 16.6674 279.063 16.164C279.231 13.9827 279.063 11.8854 278.56 9.87189C278.476 9.78799 278.434 9.70409 278.434 9.6202C278.098 8.52956 278.056 7.52282 278.308 6.59997C278.56 5.67713 278.979 4.79623 279.566 3.95727C280.573 2.27937 281.999 1.27263 283.845 0.937047C284.18 0.853153 284.474 0.811206 284.726 0.811206C284.977 0.727312 285.271 0.727312 285.607 0.811206C285.942 0.978995 286.236 1.06289 286.488 1.06289C287.243 1.14679 287.956 1.48237 288.627 2.06963L289.76 3.57975C290.347 4.58649 290.892 5.34154 291.395 5.84492C292.738 7.52282 293.912 9.32657 294.919 11.2562C295.506 12.3468 296.01 13.4374 296.429 14.5281C296.933 15.5348 297.436 16.5415 297.939 17.5483C298.191 18.1356 298.401 18.6809 298.569 19.1842C298.82 19.6876 299.072 20.191 299.324 20.6944C299.491 20.946 299.743 21.2397 300.079 21.5753C300.414 22.0786 300.582 22.4562 300.582 22.7078C300.75 23.0434 300.708 23.3371 300.456 23.5887C300.372 23.6726 300.372 23.7985 300.456 23.9663C300.54 24.1341 300.624 24.3019 300.708 24.4696C300.792 24.5535 300.96 25.0569 301.211 25.9798C301.463 26.8187 301.547 27.1123 301.463 26.8607C301.631 27.2801 301.882 27.4899 302.218 27.4899C302.47 27.5738 302.637 27.7416 302.721 27.9932C302.805 28.161 302.679 28.3708 302.344 28.6225C302.092 28.7063 302.092 29.0419 302.344 29.6292C302.595 30.1326 302.763 30.4681 302.847 30.6359C303.183 31.4749 303.476 32.3138 303.728 33.1528C303.98 33.9078 304.273 34.7049 304.609 35.5438C305.028 36.6344 305.406 37.767 305.742 38.9416C306.077 40.1161 306.413 41.2906 306.748 42.4652C307 43.3041 307.252 44.1431 307.503 44.982C307.839 45.7371 308.133 46.4921 308.384 47.2472C308.384 47.415 308.468 47.4989 308.636 47.4989L308.888 47.2472C308.888 47.0794 308.972 46.8277 309.139 46.4921C309.307 45.5693 309.517 44.6464 309.769 43.7236C310.02 42.7168 310.272 41.752 310.524 40.8292C310.943 39.5708 311.279 38.3123 311.53 37.0539C311.866 35.7955 312.201 34.5371 312.537 33.2786C312.705 32.5236 312.915 31.7685 313.166 31.0135C313.418 30.1745 313.586 29.3775 313.67 28.6225C314.005 27.1962 314.341 25.812 314.676 24.4696C315.012 23.1273 315.306 21.785 315.557 20.4427C315.641 20.2749 315.683 20.1071 315.683 19.9393C315.767 19.7715 315.809 19.6037 315.809 19.4359C315.893 18.597 316.145 17.8 316.564 17.0449C317.403 15.2831 318.787 14.1505 320.717 13.6472C321.64 13.3955 322.563 13.3955 323.485 13.6472C324.24 13.815 324.786 14.1086 325.121 14.5281C325.709 15.1153 326.254 15.7026 326.757 16.2899C327.345 16.8771 327.848 17.5063 328.267 18.1775C328.603 18.6809 328.939 19.1842 329.274 19.6876C329.61 20.1071 329.945 20.5685 330.281 21.0719C330.533 21.4075 330.784 21.785 331.036 22.2045C331.288 22.5401 331.497 22.9176 331.665 23.3371C332.336 24.5116 332.966 25.7281 333.553 26.9865C334.14 28.2449 334.643 29.5453 335.063 30.8876C335.063 31.0554 335.105 31.1813 335.189 31.2652C335.608 32.1041 335.944 32.985 336.195 33.9078C336.447 34.7468 336.699 35.6277 336.951 36.5505C337.286 37.4734 337.538 38.3962 337.706 39.3191C337.957 40.2419 338.209 41.1648 338.461 42.0876C338.461 42.4232 338.503 42.6749 338.586 42.8427C338.838 43.5138 339.048 44.227 339.216 44.982C339.384 45.7371 339.551 46.4502 339.719 47.1213C339.887 48.1281 340.055 49.1348 340.222 50.1416C340.39 51.1483 340.558 52.1131 340.726 53.0359C340.894 54.2944 341.061 55.5528 341.229 56.8112C341.397 58.0697 341.607 59.3281 341.858 60.5865C342.026 61.4255 342.152 62.3064 342.236 63.2292C342.404 64.1521 342.53 65.0749 342.613 65.9977C342.613 66.2494 342.697 66.627 342.865 67.1303L343.243 70.1506C343.243 70.57 343.285 70.8637 343.369 71.0315C343.788 72.6255 344.04 74.2614 344.124 75.9393C344.207 76.0232 344.249 76.1491 344.249 76.3169C344.249 76.4007 344.291 76.5266 344.375 76.6944L345.256 81.7281C345.424 82.3154 345.424 82.9446 345.256 83.6157L345.004 84.6225C345.004 85.2936 344.879 85.9228 344.627 86.5101C344.375 87.0974 344.082 87.6846 343.746 88.2719C343.494 88.6075 343.201 88.9431 342.865 89.2787C342.53 89.6981 342.152 90.0337 341.733 90.2854C340.81 90.9566 339.887 90.9985 338.964 90.4112C337.034 89.1528 335.608 87.6007 334.685 85.7551C334.601 85.4195 334.476 85.1258 334.308 84.8742C334.224 84.5386 334.182 84.203 334.182 83.8674L333.804 81.4764C333.721 81.0569 333.637 80.6375 333.553 80.218C333.553 79.7146 333.511 79.2532 333.427 78.8337L332.169 71.5348C332.085 70.9476 332.001 70.4022 331.917 69.8989C331.833 69.3955 331.749 68.8502 331.665 68.2629L331.162 65.4944C330.994 64.5715 330.826 63.6487 330.658 62.7258C330.491 61.7191 330.323 60.7543 330.155 59.8315L328.897 51.7775C328.813 50.603 328.603 49.4704 328.267 48.3798C328.016 47.2052 327.764 46.0726 327.512 44.982C327.177 43.6397 326.799 42.3813 326.38 41.2067C325.96 39.9483 325.499 38.7318 324.995 37.5573L324.618 36.4247C324.534 36.173 324.408 35.9213 324.24 35.6696C324.073 35.418 323.905 35.2082 323.737 35.0404C323.485 35.0404 323.36 35.0824 323.36 35.1663L322.982 36.4247C322.646 37.5153 322.353 38.6899 322.101 39.9483C321.849 41.1228 321.556 42.2974 321.22 43.4719C321.052 44.1431 320.885 44.8142 320.717 45.4854C320.549 46.1565 320.381 46.8277 320.213 47.4989C320.046 48.0861 319.878 48.7153 319.71 49.3865C319.626 49.9738 319.5 50.603 319.333 51.2741C319.165 52.2809 318.955 53.2876 318.703 54.2944C318.452 55.3011 318.242 56.3079 318.074 57.3146C317.99 58.0697 317.864 58.8247 317.697 59.5798C317.613 60.3348 317.529 61.0899 317.445 61.8449V62.6C317.613 63.2712 317.445 63.8584 316.942 64.3618C316.858 64.6135 316.732 64.8652 316.564 65.1168C316.48 65.2846 316.396 65.4944 316.312 65.7461C316.145 66.5011 315.935 67.0464 315.683 67.382L315.306 68.2629C315.222 68.3468 315.138 68.5146 315.054 68.7663C315.054 68.9341 314.97 69.1019 314.802 69.2697C314.215 70.2764 313.46 70.9476 312.537 71.2831C312.201 71.4509 311.866 71.6187 311.53 71.7865C311.279 71.9543 310.985 72.1221 310.649 72.2899C309.81 72.7094 308.93 72.6674 308.007 72.164C306.748 71.3251 305.783 70.4022 305.112 69.3955L302.847 66.1236C302.847 66.0397 302.805 65.9977 302.721 65.9977C302.721 65.9139 302.721 65.8719 302.721 65.8719C302.386 64.9491 302.008 64.1101 301.589 63.355C301.169 62.6 300.834 61.803 300.582 60.964L299.072 56.5595C298.652 55.4689 298.275 54.3783 297.939 53.2876C297.604 52.197 297.226 51.1064 296.807 50.0157L296.429 49.009C296.261 48.2539 296.052 47.4989 295.8 46.7438C295.632 45.9887 295.422 45.2756 295.171 44.6045C295.003 43.8494 294.793 43.1363 294.542 42.4652C294.29 41.7101 294.08 40.997 293.912 40.3258C293.577 39.403 293.241 38.4801 292.906 37.5573C292.654 36.5505 292.318 35.5857 291.899 34.6629C291.731 34.0756 291.479 33.6142 291.144 33.2786C290.473 32.6075 290.011 31.8105 289.76 30.8876C289.76 30.7198 289.676 30.6359 289.508 30.6359L289.256 30.8876V31.0135C289.172 31.0974 289.13 31.2232 289.13 31.391C289.046 32.2299 288.963 33.1108 288.879 34.0337C288.795 34.9565 288.669 35.8794 288.501 36.8022L288.124 40.955C288.04 41.6262 287.956 42.2974 287.872 42.9685C287.872 43.6397 287.83 44.3108 287.746 44.982C287.662 45.3176 287.578 45.6532 287.494 45.9888C287.494 46.3243 287.494 46.7019 287.494 47.1213C287.41 49.2187 287.159 51.4419 286.739 53.791C286.655 54.3783 286.571 55.0494 286.488 55.8045C286.404 56.4756 286.32 57.1468 286.236 57.818L285.858 60.5865C285.607 62.0966 285.481 63.5648 285.481 64.991C285.481 65.5783 285.481 66.1655 285.481 66.7528C285.565 67.3401 285.523 67.9273 285.355 68.5146C285.271 69.2697 285.355 70.1506 285.607 71.1573C285.942 71.7446 286.068 72.3318 285.984 72.9191C285.984 73.5064 285.9 74.1356 285.733 74.8067C285.649 75.3101 285.481 75.8135 285.229 76.3169C285.061 76.8202 284.768 77.2816 284.348 77.7011C284.18 77.9528 283.971 78.2464 283.719 78.582C283.551 78.9176 283.342 79.2112 283.09 79.4629C282.419 80.3019 282.083 81.2247 282.083 82.2315V85C282.083 85.6712 282.041 86.3004 281.957 86.8876C281.957 87.5588 281.999 88.23 282.083 88.9011C282.083 88.985 282.041 89.0689 281.957 89.1528C281.957 89.2367 281.957 89.3625 281.957 89.5303C281.873 89.782 281.831 90.0337 281.831 90.2854C281.831 90.5371 281.831 90.7888 281.831 91.0405C281.915 91.7955 281.831 92.5925 281.58 93.4315C281.16 94.1865 280.615 94.6899 279.944 94.9416C279.776 95.0255 279.608 95.0674 279.44 95.0674ZM367.743 86.2584C367.239 86.2584 366.904 86.2165 366.736 86.1326C366.4 85.9648 366.107 85.839 365.855 85.7551C365.603 85.6712 365.352 85.5873 365.1 85.5034C364.848 85.3356 364.597 85.1678 364.345 85C364.177 84.7483 364.009 84.4966 363.842 84.2449C363.674 84.0772 363.506 83.9933 363.338 83.9933C362.835 83.9933 362.583 83.7416 362.583 83.2382C362.499 82.7348 362.415 82.2315 362.331 81.7281C362.248 81.2247 362.164 80.7213 362.08 80.218C361.996 79.4629 361.912 78.7079 361.828 77.9528C361.828 77.1977 361.744 76.4846 361.576 75.8135V74.6809C361.576 74.3453 361.534 74.0517 361.451 73.8C361.451 73.5483 361.451 73.2547 361.451 72.9191C361.283 72.4996 361.283 72.164 361.451 71.9124C361.618 70.4022 361.618 68.8921 361.451 67.382C361.367 66.9625 361.325 66.5431 361.325 66.1236C361.325 65.7041 361.283 65.2846 361.199 64.8652C361.199 64.0262 361.199 63.1873 361.199 62.3483C361.199 61.4255 361.115 60.5446 360.947 59.7056V57.6921C360.947 57.021 360.905 56.3918 360.821 55.8045C360.821 55.2172 360.779 54.63 360.695 54.0427C360.612 53.2876 360.528 52.5326 360.444 51.7775C360.444 51.0225 360.402 50.2674 360.318 49.5123C360.234 49.3446 360.192 49.0509 360.192 48.6314C360.108 48.212 360.024 47.7925 359.94 47.373C359.94 46.8696 359.94 46.4082 359.94 45.9888L359.563 39.6966C359.479 39.0255 359.395 38.3962 359.311 37.809C359.311 37.1378 359.311 36.5086 359.311 35.9213C359.227 34.9146 359.143 33.9078 359.06 32.9011C358.976 31.8944 358.892 30.9296 358.808 30.0067C358.808 29.8389 358.766 29.6711 358.682 29.5034C358.682 29.3356 358.682 29.2097 358.682 29.1258C358.682 28.1191 358.64 27.1123 358.556 26.1056C358.472 25.0989 358.388 24.0502 358.304 22.9595L357.927 19.4359C357.675 18.0936 357.633 16.6254 357.801 15.0314C357.801 14.2764 358.095 13.6472 358.682 13.1438C358.85 12.976 358.976 12.8921 359.06 12.8921C359.143 12.8082 359.227 12.7243 359.311 12.6404C359.731 12.5565 359.94 12.2629 359.94 11.7595C359.94 11.5917 360.108 11.5078 360.444 11.5078H361.073C361.157 11.5078 361.199 11.5078 361.199 11.5078C361.283 11.4239 361.367 11.382 361.451 11.382C361.618 11.2981 361.744 11.2142 361.828 11.1303C361.996 10.9625 362.122 10.8786 362.206 10.8786C362.373 10.8786 362.541 10.9206 362.709 11.0045C362.877 11.0045 363.045 11.0464 363.212 11.1303C363.38 11.1303 363.506 11.0884 363.59 11.0045C364.009 10.9206 364.429 10.9625 364.848 11.1303C365.352 11.2142 365.771 11.34 366.107 11.5078C366.61 11.5917 366.988 11.9273 367.239 12.5146C367.491 13.2696 367.701 14.0247 367.869 14.7798C368.12 15.4509 368.288 16.164 368.372 16.9191V17.9258C368.54 18.5131 368.624 19.1423 368.624 19.8135C368.624 20.4007 368.624 21.0299 368.624 21.7011C368.624 22.2884 368.624 22.8756 368.624 23.4629C368.707 23.9663 368.791 24.4696 368.875 24.973C368.875 25.2247 368.875 25.4764 368.875 25.7281C368.875 25.9798 368.917 26.2314 369.001 26.4831C369.001 26.9865 369.001 27.4899 369.001 27.9932C369.085 28.4966 369.169 29.0419 369.253 29.6292C369.337 30.552 369.421 31.5168 369.504 32.5236C369.588 33.5303 369.63 34.5371 369.63 35.5438C369.63 35.9633 369.63 36.4247 369.63 36.9281C369.63 37.3475 369.672 37.767 369.756 38.1865C369.84 38.4382 369.882 38.6899 369.882 38.9416C369.882 39.1932 369.882 39.4449 369.882 39.6966V42.2135C369.882 42.7168 369.924 43.1363 370.008 43.4719C370.176 44.0592 370.218 44.6464 370.134 45.2337C370.134 45.7371 370.176 46.2824 370.26 46.8697L370.637 52.6584C370.721 53.4974 370.763 54.3783 370.763 55.3011C370.847 56.1401 370.889 57.021 370.889 57.9438C370.889 58.2794 370.889 58.6569 370.889 59.0764C370.889 59.412 370.931 59.7476 371.015 60.0831C371.098 60.3348 371.14 60.5865 371.14 60.8382C371.14 61.0899 371.14 61.3416 371.14 61.5933C371.224 61.6771 371.224 61.8449 371.14 62.0966C371.14 62.2644 371.182 62.4322 371.266 62.6C371.434 63.1873 371.518 63.7745 371.518 64.3618C371.518 64.9491 371.518 65.5783 371.518 66.2494C371.518 66.585 371.518 66.9625 371.518 67.382C371.602 67.7176 371.644 68.0951 371.644 68.5146C371.728 68.9341 371.77 69.3955 371.77 69.8989C371.77 70.4022 371.77 70.8637 371.77 71.2831C371.854 71.7026 371.895 72.164 371.895 72.6674C371.895 73.0869 371.937 73.5064 372.021 73.9258C372.105 74.0936 372.147 74.2614 372.147 74.4292C372.147 75.3521 372.231 76.2749 372.399 77.1978C372.567 78.1206 372.734 79.0434 372.902 79.9663C372.986 80.218 373.028 80.5116 373.028 80.8472C373.028 81.0989 373.028 81.3506 373.028 81.6022C373.028 81.8539 372.944 82.0637 372.776 82.2315C372.441 82.4831 372.189 82.9865 372.021 83.7416C372.021 83.9933 371.895 84.203 371.644 84.3708C371.057 84.6225 370.553 84.9581 370.134 85.3775C369.463 85.9648 368.666 86.2584 367.743 86.2584ZM440.844 83.2382C439.25 83.3221 437.739 82.9446 436.313 82.1056C435.978 81.9378 435.558 81.77 435.055 81.6022C434.468 81.3506 433.88 80.9311 433.293 80.3438C432.37 79.421 431.447 78.5401 430.524 77.7011C429.685 76.7783 428.888 75.8135 428.133 74.8067C427.798 74.3873 427.462 73.9258 427.127 73.4225C426.791 72.9191 426.414 72.4577 425.994 72.0382C425.491 71.4509 424.987 70.9056 424.484 70.4022C424.065 69.815 423.603 69.2697 423.1 68.7663L418.192 63.1034C417.772 62.6 417.353 62.0966 416.933 61.5933C416.598 61.0899 416.22 60.6285 415.801 60.209L415.172 59.4539C415.004 59.2861 414.752 59.2861 414.417 59.4539C414.333 59.5378 414.249 59.6217 414.165 59.7056C414.081 59.7056 413.997 59.7895 413.913 59.9573C413.662 60.2929 413.41 60.5865 413.158 60.8382C412.906 61.0899 412.697 61.3835 412.529 61.7191C412.361 61.803 412.151 61.9288 411.9 62.0966C411.648 62.1805 411.48 62.3064 411.396 62.4741C411.312 62.558 411.229 62.7258 411.145 62.9775C411.145 63.2292 411.061 63.4389 410.893 63.6067L408.376 66.5011C408.124 66.8367 407.873 67.1723 407.621 67.5079C407.369 67.7595 407.16 68.0532 406.992 68.3888C406.74 68.7243 406.447 69.0599 406.111 69.3955C405.859 69.7311 405.608 70.1086 405.356 70.5281C404.853 71.1154 404.391 71.7446 403.972 72.4157C403.552 73.0869 403.133 73.758 402.713 74.4292C402.126 75.2682 401.581 76.3169 401.077 77.5753C400.49 78.582 399.777 79.2532 398.938 79.5888L396.295 80.973C396.211 80.973 396.127 81.015 396.044 81.0989C395.96 81.0989 395.834 81.0989 395.666 81.0989C394.24 80.9311 392.981 80.6375 391.891 80.218C391.471 80.0502 391.136 79.7985 390.884 79.4629L389.374 76.5685C389.122 76.1491 388.996 75.6876 388.996 75.1843C389.08 74.8487 389.122 74.3873 389.122 73.8C389.122 72.6255 389.584 71.4929 390.506 70.4022C391.094 69.6472 391.681 68.9341 392.268 68.2629C392.856 67.5079 393.443 66.7528 394.03 65.9977C394.617 65.3266 395.163 64.6554 395.666 63.9843C396.253 63.3131 396.757 62.6 397.176 61.8449C397.596 61.0899 398.099 60.4607 398.686 59.9573C399.609 58.8667 400.532 57.7341 401.455 56.5595C402.378 55.385 403.259 54.2524 404.097 53.1618C404.349 52.7423 404.601 52.3648 404.853 52.0292C405.188 51.6097 405.524 51.2322 405.859 50.8966C406.027 50.561 406.195 50.3094 406.363 50.1416C406.363 49.9738 406.363 49.8479 406.363 49.764C406.447 49.5962 406.405 49.4704 406.237 49.3865C405.901 48.967 405.608 48.5895 405.356 48.2539C405.104 47.8344 404.769 47.4569 404.349 47.1213C402.923 45.3595 401.497 43.6397 400.07 41.9618C398.644 40.2 397.218 38.4382 395.792 36.6764C395.205 35.9213 394.575 35.1663 393.904 34.4112C393.233 33.6562 392.562 32.9431 391.891 32.2719C391.303 31.6846 390.716 31.0974 390.129 30.5101C389.626 29.9228 389.122 29.3356 388.619 28.7483C388.283 28.3288 387.906 27.9093 387.486 27.4899C387.151 26.9865 386.773 26.567 386.354 26.2314C385.85 25.812 385.473 25.3086 385.221 24.7213C384.969 24.1341 384.76 23.5468 384.592 22.9595V22.3303C384.424 21.5753 384.424 20.8621 384.592 20.191C384.76 19.5198 385.011 18.8487 385.347 18.1775C386.018 17.003 386.983 16.164 388.241 15.6607C388.661 15.4929 389.038 15.409 389.374 15.409C389.793 15.3251 390.171 15.2412 390.506 15.1573C391.094 14.9895 391.555 15.0314 391.891 15.2831C392.562 15.7026 393.359 16.1221 394.282 16.5415C394.282 16.6254 394.324 16.6674 394.408 16.6674C394.659 16.8352 394.869 17.0869 395.037 17.4225C395.288 17.758 395.582 18.0097 395.918 18.1775C396.169 18.2614 396.379 18.4292 396.547 18.6809C396.799 18.9326 397.008 19.1842 397.176 19.4359C397.512 19.9393 397.847 20.4427 398.183 20.946C398.602 21.3655 399.022 21.785 399.441 22.2045C400.364 23.2112 401.287 24.2599 402.21 25.3505C403.133 26.4412 404.014 27.5318 404.853 28.6225C405.272 29.2097 405.733 29.755 406.237 30.2584C406.74 30.7618 407.202 31.2652 407.621 31.7685C407.873 32.1041 408.124 32.4816 408.376 32.9011C408.712 33.2367 409.047 33.6142 409.383 34.0337C409.802 34.621 410.222 35.2082 410.641 35.7955C411.145 36.3828 411.648 36.97 412.151 37.5573C412.487 37.9768 412.823 38.3962 413.158 38.8157C413.494 39.2352 413.829 39.6547 414.165 40.0741C414.249 40.158 414.333 40.2419 414.417 40.3258C414.5 40.3258 414.584 40.4097 414.668 40.5775C414.92 40.6614 415.172 40.6614 415.423 40.5775L416.682 39.4449C417.353 38.6899 418.024 37.9348 418.695 37.1798C419.366 36.4247 420.038 35.7116 420.709 35.0404C421.464 34.2015 422.177 33.3625 422.848 32.5236C423.603 31.6846 424.358 30.8457 425.113 30.0067C426.12 28.9161 427.085 27.8254 428.008 26.7348C429.014 25.6442 430.021 24.5535 431.028 23.4629L434.803 18.555C434.971 18.2195 435.139 17.9678 435.306 17.8C435.81 17.2127 436.229 16.5835 436.565 15.9123C436.984 15.2412 437.362 14.612 437.697 14.0247C437.949 13.4374 438.285 13.0599 438.704 12.8921C439.627 12.2209 440.592 11.7595 441.599 11.5078C442.605 11.2562 443.654 11.1723 444.745 11.2562C445.5 11.4239 446.171 11.7176 446.758 12.137C446.926 12.2209 447.094 12.3468 447.262 12.5146C447.513 12.6824 447.765 12.8502 448.017 13.018C448.52 13.3535 448.897 13.8569 449.149 14.5281V14.6539C449.653 15.409 449.904 16.164 449.904 16.9191C449.904 17.6741 449.82 18.4711 449.653 19.3101C449.569 20.0651 449.317 20.7783 448.897 21.4494C448.562 22.0367 448.184 22.582 447.765 23.0854L442.857 28.3708C442.773 28.4547 442.689 28.5386 442.605 28.6225C442.605 28.6225 442.563 28.6644 442.479 28.7483C441.641 29.5872 440.802 30.4681 439.963 31.391C439.208 32.2299 438.453 33.1108 437.697 34.0337L436.817 35.0404C436.229 35.5438 435.684 36.0891 435.181 36.6764C434.677 37.2637 434.132 37.8509 433.545 38.4382C433.377 38.7738 433.293 38.9416 433.293 38.9416C432.79 39.5288 432.244 40.0322 431.657 40.4517C431.154 40.8711 430.692 41.4165 430.273 42.0876C429.853 42.6749 429.392 43.2202 428.888 43.7236C428.385 44.227 427.882 44.7303 427.378 45.2337C426.791 45.9049 426.204 46.576 425.617 47.2472C425.029 47.8344 424.442 48.4637 423.855 49.1348C423.771 49.2187 423.687 49.3026 423.603 49.3865C423.519 49.4704 423.435 49.5962 423.351 49.764V50.2674C423.435 50.4352 423.561 50.603 423.729 50.7708L425.365 52.7843C426.036 53.5393 426.707 54.2944 427.378 55.0494C428.133 55.8045 428.805 56.5595 429.392 57.3146L433.545 62.3483C434.468 63.355 435.348 64.3618 436.187 65.3685C437.11 66.3753 437.991 67.424 438.83 68.5146C439.25 68.9341 439.711 69.3536 440.214 69.773C440.718 70.1086 441.221 70.4861 441.724 70.9056L442.731 71.6607C443.151 71.9962 443.486 72.3738 443.738 72.7933C444.074 73.1288 444.367 73.5064 444.619 73.9258C444.871 74.2614 444.996 74.6809 444.996 75.1843C444.996 75.8554 444.996 76.5266 444.996 77.1978C445.08 77.8689 445.122 78.5401 445.122 79.2112C445.122 79.4629 445.038 79.7566 444.871 80.0921C444.619 80.3438 444.409 80.6375 444.241 80.973C443.654 82.3154 442.521 83.0704 440.844 83.2382Z" fill="#9333EA"/>
</svg>
